{
  "accessors": [
    {
      "bufferView": 2,
      "componentType": 5126,
      "count": 20299,
      "max": [
        100,
        100,
        100
      ],
      "min": [
        -100,
        -100,
        -100
      ],
      "type": "VEC3"
    },
    {
      "bufferView": 2,
      "byteOffset": 243588,
      "componentType": 5126,
      "count": 20299,
      "max": [
        1,
        1,
        1
      ],
      "min": [
        -1,
        -1,
        -1
      ],
      "type": "VEC3"
    },
    {
      "bufferView": 3,
      "componentType": 5126,
      "count": 20299,
      "max": [
        1,
        0.0078539978712797165,
        1,
        1
      ],
      "min": [
        -1,
        -0.0078541561961174011,
        -1,
        1
      ],
      "type": "VEC4"
    },
    {
      "bufferView": 1,
      "componentType": 5126,
      "count": 20299,
      "max": [
        1,
        1
      ],
      "min": [
        0,
        0
      ],
      "type": "VEC2"
    },
    {
      "bufferView": 0,
      "componentType": 5125,
      "count": 118800,
      "max": [
        20298
      ],
      "min": [
        0
      ],
      "type": "SCALAR"
    }
  ],
  "asset": {
    "extras": {
      "author": "unaipl2003 (https://sketchfab.com/unaipl2003)",
      "license": "CC-BY-4.0 (http://creativecommons.org/licenses/by/4.0/)",
      "source": "https://sketchfab.com/3d-models/mapa-topografico-de-mercurio-ec945be1886c444ba1ea616f02515da7",
      "title": "Mapa Topografico de Mercurio"
    },
    "generator": "Sketchfab-4.97.1",
    "version": "2.0"
  },
  "bufferViews": [
    {
      "buffer": 0,
      "byteLength": 475200,
      "byteOffset": 0,
      "name": "floatBufferViews",
      "target": 34963
    },
    {
      "buffer": 0,
      "byteLength": 162392,
      "byteOffset": 475200,
      "byteStride": 8,
      "name": "floatBufferViews",
      "target": 34962
    },
    {
      "buffer": 0,
      "byteLength": 487176,
      "byteOffset": 637592,
      "byteStride": 12,
      "name": "floatBufferViews",
      "target": 34962
    },
    {
      "buffer": 0,
      "byteLength": 324784,
      "byteOffset": 1124768,
      "byteStride": 16,
      "name": "floatBufferViews",
      "target": 34962
    }
  ],
  "buffers": [
    {
      "byteLength": 1449552,
      "uri": "scene.bin"
    }
  ],
  "images": [
    {
      "uri": "textures/Scene_-_Root_baseColor.jpeg"
    }
  ],
  "materials": [
    {
      "doubleSided": true,
      "name": "Scene_-_Root",
      "pbrMetallicRoughness": {
        "baseColorFactor": [
          1,
          1,
          1,
          1
        ],
        "baseColorTexture": {
          "index": 0,
          "texCoord": 0
        },
        "metallicFactor": 0,
        "roughnessFactor": 0.29999999999999999
      }
    }
  ],
  "meshes": [
    {
      "name": "Esfera__0",
      "primitives": [
        {
          "attributes": {
            "NORMAL": 1,
            "POSITION": 0,
            "TANGENT": 2,
            "TEXCOORD_0": 3
          },
          "indices": 4,
          "material": 0,
          "mode": 4
        }
      ]
    }
  ],
  "nodes": [
    {
      "children": [
        1
      ],
      "name": "RootNode (gltf orientation matrix)",
      "rotation": [
        -0.70710678118654746,
        -0,
        -0,
        0.70710678118654757
      ]
    },
    {
      "children": [
        2
      ],
      "name": "RootNode (model correction matrix)"
    },
    {
      "children": [
        3
      ],
      "matrix": [
        1,
        0,
        0,
        0,
        0,
        0,
        1,
        0,
        0,
        -1,
        0,
        0,
        0,
        0,
        0,
        1
      ],
      "name": "Mercury Topo.fbx"
    },
    {
      "children": [
        4,
        6
      ],
      "name": "RootNode"
    },
    {
      "children": [
        5
      ],
      "matrix": [
        -0.66675391797236894,
        -0.33298412234968411,
        -0.66675391797236949,
        0,
        -0.23545533094091287,
        0.94293243356192313,
        -0.23545533094091242,
        0,
        0.70710678118654735,
        4.0245584642661925e-16,
        -0.70710678118654702,
        0,
        308.2171630859375,
        155.30970764160156,
        299.92459106445312,
        1
      ],
      "name": "Cinema_4D_Editor"
    },
    {
      "name": ""
    },
    {
      "children": [
        7
      ],
      "name": "Esfera"
    },
    {
      "mesh": 0,
      "name": "Esfera__0"
    }
  ],
  "samplers": [
    {
      "magFilter": 9729,
      "minFilter": 9987,
      "wrapS": 10497,
      "wrapT": 10497
    }
  ],
  "scene": 0,
  "scenes": [
    {
      "name": "OSG_Scene",
      "nodes": [
        0
      ]
    }
  ],
  "textures": [
    {
      "sampler": 0,
      "source": 0
    }
  ]
}

